<?xml version="1.0" standalone="no"?>
<!DOCTYPE svg PUBLIC "-//W3C//DTD SVG 20010904//EN"
 "http://www.w3.org/TR/2001/REC-SVG-20010904/DTD/svg10.dtd">
<svg version="1.0" xmlns="http://www.w3.org/2000/svg"
 width="512.000000pt" height="512.000000pt" viewBox="0 0 512.000000 512.000000"
 preserveAspectRatio="xMidYMid meet">

<g transform="translate(0.000000,512.000000) scale(0.100000,-0.100000)"
fill="#000000" stroke="none">
<path d="M705 4975 c-24 -23 -25 -30 -25 -137 l0 -114 -46 -12 c-59 -16 -109
-65 -124 -121 -8 -29 -10 -142 -8 -359 3 -311 3 -318 26 -354 26 -41 71 -72
120 -83 l32 -7 0 -101 c0 -56 3 -112 6 -125 9 -31 57 -55 95 -47 50 11 59 37
59 161 l0 112 43 11 c57 14 95 45 118 95 17 37 19 71 19 361 0 289 -2 324 -19
360 -24 53 -73 93 -122 101 l-39 7 0 114 c0 108 -1 115 -25 138 -15 16 -36 25
-55 25 -19 0 -40 -9 -55 -25z m153 -717 l-3 -303 -95 0 -95 0 -3 290 c-1 159
0 295 3 302 3 9 32 13 100 13 l95 0 -2 -302z"/>
<path d="M1623 4990 c-31 -12 -43 -41 -43 -99 l0 -51 -46 -11 c-60 -15 -108
-63 -123 -122 -7 -30 -11 -151 -11 -344 1 -311 5 -349 47 -395 23 -26 86 -58
113 -58 19 0 20 -6 20 -174 0 -197 5 -212 72 -222 30 -5 41 -2 62 19 26 26 26
26 26 200 l0 174 39 7 c49 8 98 48 122 101 17 36 19 71 19 360 0 293 -2 324
-19 362 -21 46 -75 87 -128 98 -32 6 -33 8 -33 61 0 84 -48 122 -117 94z m135
-618 l2 -303 -97 3 -98 3 -3 290 c-1 159 0 296 3 303 3 9 28 12 97 10 l93 -3
3 -303z"/>
<path d="M2505 4975 c-25 -24 -25 -26 -25 -213 l0 -189 -42 -7 c-52 -8 -111
-65 -127 -121 -14 -53 -15 -611 0 -668 17 -66 65 -113 132 -126 30 -6 32 -10
37 -54 7 -56 24 -76 71 -83 51 -9 81 20 88 82 6 48 7 49 49 57 53 10 107 61
121 114 7 23 11 162 11 348 0 279 -2 314 -19 350 -24 53 -73 93 -122 101 l-39
7 0 189 c0 187 0 189 -25 213 -15 16 -36 25 -55 25 -19 0 -40 -9 -55 -25z
m153 -867 l-3 -303 -75 -3 c-41 -2 -85 0 -97 3 l-23 5 0 294 c0 161 3 296 7
299 3 4 48 7 100 7 l93 0 -2 -302z"/>
<path d="M3423 4990 c-28 -12 -43 -40 -43 -84 0 -32 -3 -36 -25 -36 -58 0
-126 -60 -145 -128 -14 -51 -13 -615 1 -667 16 -56 75 -113 127 -121 l42 -7 0
-192 c0 -218 4 -231 72 -241 30 -5 41 -2 62 19 l26 26 0 194 0 194 40 7 c54 8
116 65 130 118 7 25 10 156 8 361 -3 318 -3 322 -27 360 -25 40 -84 77 -126
77 -23 0 -25 4 -25 40 0 69 -54 105 -117 80z m137 -580 l0 -301 -97 3 -98 3
-3 298 -2 297 100 0 100 0 0 -300z"/>
<path d="M4309 4981 l-24 -19 -3 -315 -3 -315 -35 -5 c-44 -7 -98 -47 -122
-90 -15 -29 -17 -66 -17 -357 0 -179 3 -337 7 -352 10 -35 53 -85 90 -104 41
-21 198 -30 267 -15 68 14 109 44 132 95 17 37 19 71 19 364 0 249 -3 330 -14
355 -19 47 -79 96 -126 103 l-40 7 0 309 0 309 -25 24 c-29 30 -74 32 -106 6z
m149 -1113 l-3 -303 -75 -3 c-41 -2 -85 0 -97 3 l-23 5 0 294 c0 161 3 296 7
299 3 4 48 7 100 7 l93 0 -2 -302z"/>
<path d="M2542 3233 c-6 -2 -62 -70 -124 -149 -61 -79 -117 -144 -125 -144 -7
0 -135 36 -284 81 l-272 81 -491 -106 c-270 -58 -497 -106 -503 -106 -7 0 -13
11 -13 25 0 66 -66 154 -133 180 -36 13 -78 16 -249 13 l-206 -3 -43 -30 c-27
-19 -54 -50 -71 -84 l-28 -54 2 -926 c3 -1020 -1 -949 65 -1015 58 -59 89 -66
299 -66 185 0 191 1 243 26 31 16 61 40 74 60 12 19 24 34 27 34 3 0 174 -182
379 -405 206 -223 392 -422 416 -444 61 -56 128 -76 255 -75 175 1 320 53 407
148 26 29 53 59 58 68 9 15 17 16 65 6 63 -12 167 -4 254 18 133 34 253 122
276 202 l12 39 107 1 c164 1 323 52 415 132 39 35 76 104 76 143 0 14 4 28 9
31 4 3 213 64 462 136 250 72 461 133 470 135 14 5 17 -5 21 -55 6 -80 43
-135 117 -172 54 -28 57 -28 245 -28 164 0 197 3 232 19 57 26 111 92 124 155
8 36 10 321 8 951 l-3 900 -25 45 c-14 24 -44 58 -68 75 l-44 30 -209 3 -209
3 -52 -28 c-58 -32 -103 -92 -113 -154 -4 -21 -12 -39 -18 -39 -6 0 -405 79
-888 175 -828 165 -916 181 -947 168z m947 -333 c471 -93 866 -172 879 -175
l22 -5 0 -684 0 -683 -497 -142 c-274 -78 -505 -144 -514 -147 -12 -3 -128
118 -400 417 -211 231 -385 424 -387 429 -4 10 338 326 350 322 5 -1 119 -70
252 -152 155 -95 253 -150 270 -150 60 0 98 83 59 128 -20 23 -530 339 -574
355 -17 7 -35 7 -47 1 -11 -5 -143 -123 -294 -263 -178 -166 -289 -261 -318
-275 -61 -27 -151 -27 -206 2 -53 27 -117 100 -132 150 -16 54 -15 135 3 178
17 41 652 864 667 864 6 0 395 -76 867 -170z m-2937 33 c17 -15 18 -57 18
-911 0 -819 -1 -897 -17 -914 -14 -16 -34 -18 -189 -18 -167 0 -173 1 -188 22
-14 20 -16 123 -16 908 0 785 2 888 16 908 15 21 21 22 186 22 145 0 174 -3
190 -17z m4390 0 c17 -15 18 -57 18 -911 0 -819 -1 -897 -17 -914 -14 -16 -34
-18 -189 -18 -167 0 -173 1 -188 22 -14 20 -16 123 -16 908 0 785 2 888 16
908 15 21 21 22 186 22 145 0 174 -3 190 -17z m-2974 -67 c118 -36 216 -67
219 -70 3 -2 -69 -100 -158 -216 -90 -116 -177 -230 -192 -253 -59 -87 -77
-231 -43 -335 41 -123 153 -239 269 -278 71 -25 187 -25 252 0 28 10 74 35
103 54 30 20 57 31 62 26 4 -5 184 -202 399 -438 437 -479 425 -461 349 -516
-62 -45 -157 -71 -263 -72 -98 -1 -144 12 -197 57 -39 33 -73 32 -109 -4 -36
-36 -36 -50 -2 -110 31 -57 27 -90 -18 -132 -53 -49 -131 -73 -244 -73 -111
-1 -138 8 -208 70 -39 36 -64 41 -100 22 -50 -26 -60 -73 -27 -123 30 -45 25
-69 -21 -109 -58 -49 -144 -77 -259 -83 -86 -4 -99 -2 -138 19 -29 16 -179
172 -477 496 l-435 472 0 724 0 724 23 5 c12 3 182 40 377 83 195 42 400 87
455 99 55 13 116 23 135 24 19 0 131 -28 248 -63z"/>
</g>
</svg>
