<?xml version="1.0" standalone="no"?>
<!DOCTYPE svg PUBLIC "-//W3C//DTD SVG 20010904//EN"
 "http://www.w3.org/TR/2001/REC-SVG-20010904/DTD/svg10.dtd">
<svg version="1.0" xmlns="http://www.w3.org/2000/svg"
 width="512.000000pt" height="512.000000pt" viewBox="0 0 512.000000 512.000000"
 preserveAspectRatio="xMidYMid meet">

<g transform="translate(0.000000,512.000000) scale(0.100000,-0.100000)"
fill="#000000" stroke="none">
<path d="M660 4880 c-92 -9 -146 -24 -228 -61 -215 -97 -370 -292 -417 -524
-14 -71 -15 -209 -13 -1285 4 -1353 -3 -1243 80 -1410 34 -69 60 -103 138
-180 77 -78 111 -104 180 -138 155 -77 145 -76 693 -80 l487 -3 0 -143 0 -144
-112 -4 c-106 -3 -117 -6 -176 -38 -116 -62 -176 -162 -177 -295 0 -71 4 -88
33 -147 39 -80 101 -138 181 -170 l56 -23 1020 -3 c1060 -3 1119 -1 1197 39
62 32 125 95 155 158 24 49 28 68 28 146 0 74 -5 99 -24 137 -34 71 -92 130
-157 163 -53 27 -71 30 -171 34 l-113 3 0 89 0 90 78 -8 c111 -11 255 -8 342
8 41 7 79 13 85 14 5 0 13 -20 17 -45 11 -64 55 -129 112 -165 40 -24 62 -30
122 -33 81 -5 139 16 184 63 l23 25 161 -158 c141 -139 169 -162 221 -181 49
-19 74 -22 140 -19 98 6 161 34 224 103 66 72 86 124 86 225 -1 129 -16 155
-202 342 l-157 158 26 27 c38 40 68 111 68 163 0 25 10 74 23 110 l22 65 3
1229 c2 1202 2 1232 -18 1310 -34 138 -91 237 -195 341 -102 103 -198 160
-332 198 l-78 22 -1770 1 c-974 1 -1804 -2 -1845 -6z m3685 -172 c150 -51 267
-150 338 -285 70 -134 67 -67 67 -1389 0 -655 -3 -1193 -6 -1197 -4 -3 -19 0
-34 8 -15 8 -46 17 -69 21 -23 4 -41 9 -41 13 0 3 7 41 15 84 18 97 19 286 1
387 -8 42 -28 116 -45 166 l-31 91 0 781 c0 540 -3 797 -11 834 -25 118 -98
209 -207 261 l-67 32 -1545 3 c-850 1 -1555 0 -1567 -3 -53 -13 -73 -85 -33
-125 20 -20 33 -20 1553 -20 1057 0 1544 -3 1571 -11 21 -6 58 -29 82 -51 76
-70 74 -51 74 -800 l0 -658 -78 78 c-163 160 -371 266 -594 302 -112 18 -330
8 -438 -20 -315 -83 -572 -295 -711 -585 -124 -260 -141 -574 -43 -833 13 -35
24 -66 24 -68 0 -3 -427 -3 -948 -2 l-948 3 -37 25 c-21 14 -50 43 -65 64
l-27 39 -3 1179 c-2 1158 -2 1179 18 1217 24 48 79 95 129 110 21 6 79 11 128
11 76 0 92 3 111 20 32 30 30 82 -5 110 -26 20 -37 22 -143 18 -98 -3 -124 -8
-172 -30 -75 -35 -151 -107 -185 -177 l-28 -56 0 -1210 0 -1210 27 -57 c34
-73 103 -142 176 -176 l57 -27 1000 -3 1000 -2 25 -37 c14 -21 56 -70 94 -111
l69 -73 -1104 3 -1104 3 -67 26 c-102 40 -173 87 -241 159 -69 73 -129 190
-146 284 -8 41 -11 431 -11 1226 0 1134 1 1169 20 1245 40 156 148 296 285
366 88 46 128 59 213 69 37 4 861 7 1832 6 l1765 -1 80 -27z m-550 -1646 c260
-76 469 -250 589 -489 107 -215 126 -481 50 -713 l-25 -75 -237 -239 c-140
-141 -251 -244 -272 -253 -205 -90 -468 -90 -700 -1 -199 76 -393 255 -493
453 -74 147 -108 344 -88 511 48 414 331 726 742 819 95 22 341 14 434 -13z
m859 -1357 c13 -9 29 -29 36 -45 27 -65 18 -77 -278 -373 l-278 -277 -46 0
c-73 0 -115 54 -96 125 5 21 93 115 286 308 265 264 280 277 315 277 21 0 48
-7 61 -15z m143 -537 c145 -145 173 -187 173 -250 -1 -67 -53 -144 -113 -167
-41 -16 -113 -13 -150 5 -18 9 -96 80 -174 157 l-143 142 127 127 c70 71 130
128 133 128 3 0 69 -64 147 -142z m-1693 1 l66 -31 0 -114 0 -114 -720 0 -720
0 0 145 0 145 654 0 654 0 66 -31z m433 -428 c86 -39 126 -152 85 -243 -24
-56 -73 -94 -138 -108 -33 -7 -376 -10 -1064 -8 l-1015 3 -42 23 c-112 59
-133 214 -42 302 54 51 10 49 1129 49 1005 1 1047 0 1087 -18z"/>
<path d="M1501 4145 c-69 -20 -108 -44 -161 -101 -65 -70 -85 -123 -85 -224 0
-71 4 -94 26 -141 34 -72 96 -134 168 -168 47 -22 70 -26 141 -26 102 0 155
21 228 89 172 161 130 443 -82 546 -76 37 -160 46 -235 25z m143 -147 c58 -18
111 -74 125 -135 49 -204 -220 -320 -339 -147 -65 96 -15 240 96 279 49 18 67
18 118 3z"/>
<path d="M1145 3391 c-109 -28 -175 -113 -175 -226 0 -127 106 -225 244 -225
l36 0 0 -149 0 -148 -62 -7 c-138 -16 -218 -101 -218 -231 0 -65 22 -114 72
-162 63 -61 78 -63 520 -63 261 0 415 4 443 11 60 15 129 77 151 134 22 59 15
150 -16 201 -32 50 -92 91 -155 104 l-54 11 -3 298 -3 298 -30 49 c-19 30 -49
60 -79 79 l-49 30 -296 2 c-163 1 -309 -2 -326 -6z m588 -152 c44 -20 47 -41
47 -384 0 -380 -4 -365 99 -365 69 0 118 -15 131 -40 17 -32 11 -70 -15 -95
l-24 -25 -399 0 c-389 0 -400 1 -426 21 -32 25 -35 75 -7 110 17 21 29 24 120
27 148 6 141 -9 141 302 0 235 -1 249 -21 274 -19 25 -25 26 -113 26 -79 0
-97 3 -120 21 -46 36 -32 111 24 132 30 11 538 7 563 -4z"/>
<path d="M3400 2885 c-162 -37 -283 -106 -398 -230 -128 -137 -192 -305 -192
-503 0 -282 161 -537 417 -659 82 -39 167 -64 191 -56 33 12 52 36 52 68 0 47
-17 61 -109 94 -108 39 -165 77 -244 161 -106 112 -157 242 -157 398 0 165 54
296 170 412 86 87 162 131 276 160 322 82 649 -122 720 -450 28 -131 10 -264
-53 -390 -70 -138 -223 -265 -366 -300 -46 -12 -87 -47 -87 -76 0 -28 24 -63
50 -74 24 -10 41 -7 114 18 109 38 180 80 267 161 92 84 159 187 200 309 30
89 33 108 33 222 1 146 -14 214 -73 335 -93 188 -249 320 -456 385 -92 28
-263 36 -355 15z"/>
</g>
</svg>
