<svg id="Layer_1" data-name="Layer 1" xmlns="http://www.w3.org/2000/svg" viewBox="0 0 96 96"><path d="M87.31,85.33H8.69a6.25,6.25,0,0,1-6.25-6.25V26.88a6.25,6.25,0,0,1,6.25-6.25h1.39a1,1,0,1,1,0,2H8.69a4.25,4.25,0,0,0-4.25,4.25v52.2a4.26,4.26,0,0,0,4.25,4.25H87.31a4.26,4.26,0,0,0,4.25-4.25V26.88a4.25,4.25,0,0,0-4.25-4.25H85.92a1,1,0,0,1,0-2h1.39a6.25,6.25,0,0,1,6.25,6.25v52.2A6.25,6.25,0,0,1,87.31,85.33Z"/><path d="M70.37,91H25.63a1,1,0,1,1,0-2H70.37a1,1,0,0,1,0,2Z"/><path d="M66.32,91H29.68a1,1,0,0,1-.45-1.9,12.68,12.68,0,0,0,5.67-5.23,1,1,0,0,1,.88-.53H60.22a1,1,0,0,1,.88.53,12.68,12.68,0,0,0,5.67,5.23,1,1,0,0,1-.45,1.9ZM33.1,89H62.9a14.07,14.07,0,0,1-3.27-3.66H36.37A14.07,14.07,0,0,1,33.1,89Z"/><path d="M81.79,78.25H14.21a5.14,5.14,0,0,1-5.13-5.14V19.84a5.13,5.13,0,0,1,5.13-5.13H40.77a1,1,0,0,1,0,2H14.21a3.13,3.13,0,0,0-3.13,3.13V73.11a3.14,3.14,0,0,0,3.13,3.14H81.79a3.14,3.14,0,0,0,3.13-3.14V19.84a3.13,3.13,0,0,0-3.13-3.13H55.23a1,1,0,0,1,0-2H81.79a5.13,5.13,0,0,1,5.13,5.13V73.11A5.14,5.14,0,0,1,81.79,78.25Z"/><path d="M79.91,26.11H59.08a1,1,0,0,1,0-2H79.91a1,1,0,0,1,0,2Z"/><path d="M36.92,26.11H16.09a1,1,0,0,1,0-2H36.92a1,1,0,0,1,0,2Z"/><path d="M79.81,63.11H16.19a1,1,0,0,1,0-2H79.81a1,1,0,0,1,0,2Z"/><path d="M79.81,70.16H16.19a1,1,0,0,1,0-2H79.81a1,1,0,0,1,0,2Z"/><path d="M40.08,56.06H16.19a1,1,0,0,1,0-2H40.08a1,1,0,0,1,0,2Z"/><path d="M20.55,21.41H19a1,1,0,0,1,0-2h1.6a1,1,0,0,1,0,2Z"/><path d="M25.84,21.41h-1.6a1,1,0,0,1,0-2h1.6a1,1,0,0,1,0,2Z"/><path d="M31.12,21.41h-1.6a1,1,0,0,1,0-2h1.6a1,1,0,0,1,0,2Z"/><path d="M53.39,28.25H42.61a1,1,0,0,1-.85-.48A16.27,16.27,0,0,1,47.5,5.15a1,1,0,0,1,1,0,16.27,16.27,0,0,1,5.74,22.62A1,1,0,0,1,53.39,28.25Zm-10.21-2h9.64A14.29,14.29,0,0,0,48,7.18a14.29,14.29,0,0,0-4.82,19.07Z"/><path d="M55.32,33a1,1,0,0,1-.59-.2,1,1,0,0,1-.4-.92,5.34,5.34,0,0,0-1.43-4.31,1,1,0,0,1,0-1.41,1,1,0,0,1,1.42,0,7.41,7.41,0,0,1,1.95,4,5.09,5.09,0,0,0,.81-.86A5.34,5.34,0,0,0,56,21.87a5.85,5.85,0,0,0-.84-.52A1,1,0,0,1,56,19.54a6.46,6.46,0,0,1,1.2.72,7.35,7.35,0,0,1,1.49,10.27,7.54,7.54,0,0,1-3,2.34A1.1,1.1,0,0,1,55.32,33Z"/><path d="M40.68,33a1.1,1.1,0,0,1-.4-.08,7.44,7.44,0,0,1-3-2.34,7.35,7.35,0,0,1,1.47-10.27A6.86,6.86,0,0,1,40,19.54a1,1,0,1,1,.83,1.81,6.51,6.51,0,0,0-.85.52,5.35,5.35,0,0,0-1.07,7.46,5.43,5.43,0,0,0,.81.85,7.41,7.41,0,0,1,1.95-4,1,1,0,0,1,1.42,0,1,1,0,0,1,0,1.41,5.33,5.33,0,0,0-1.43,4.31,1,1,0,0,1-.4.92A1,1,0,0,1,40.68,33Z"/><path d="M48,38.52a1,1,0,0,1-.55-.16c-3.71-2.45-3.59-5.85-3-7.3a1,1,0,0,1,1.86.73c-.1.27-.84,2.49,1.69,4.5,2.53-2,1.79-4.24,1.69-4.5a1,1,0,0,1,.58-1.29,1,1,0,0,1,1.28.56c.59,1.45.71,4.85-3,7.3A1,1,0,0,1,48,38.52Z"/><path d="M48,15a9,9,0,0,1-6.35-2.61A1,1,0,0,1,43.06,11a7,7,0,0,0,9.88,0,1,1,0,0,1,1.41,1.42A9,9,0,0,1,48,15Z"/><path d="M66.12,45.49a1,1,0,0,1-1-1,2.71,2.71,0,0,0-2.71-2.72,2.84,2.84,0,0,0-1,.21,1,1,0,0,1-.79,0,1,1,0,0,1-.54-.57,2.71,2.71,0,0,0-2.53-1.77,2.31,2.31,0,0,0-.46,0,1,1,0,0,1-1-.43,2.72,2.72,0,0,0-2.25-1.2,1,1,0,0,1,0-2,4.73,4.73,0,0,1,3.52,1.58h.19a4.73,4.73,0,0,1,4,2.22,4.6,4.6,0,0,1,.91-.09,4.72,4.72,0,0,1,4.71,4.72A1,1,0,0,1,66.12,45.49Z"/><path d="M29.88,45.49a1,1,0,0,1-1-1,4.72,4.72,0,0,1,4.71-4.72,4.6,4.6,0,0,1,.91.09,4.73,4.73,0,0,1,4-2.22h.19a4.73,4.73,0,0,1,3.52-1.58,1,1,0,0,1,0,2A2.72,2.72,0,0,0,40,39.26a1,1,0,0,1-1,.43,2.31,2.31,0,0,0-.46,0A2.71,2.71,0,0,0,36,41.41a1,1,0,0,1-.54.57,1,1,0,0,1-.79,0,2.84,2.84,0,0,0-1-.21,2.71,2.71,0,0,0-2.71,2.72A1,1,0,0,1,29.88,45.49Z"/></svg>